<?xml version="1.0" standalone="no"?><!DOCTYPE svg PUBLIC "-//W3C//DTD SVG 1.1//EN" "http://www.w3.org/Graphics/SVG/1.1/DTD/svg11.dtd"><svg t="1546498736870" class="icon" style="" viewBox="0 0 1024 1024" version="1.1" xmlns="http://www.w3.org/2000/svg" p-id="6163" xmlns:xlink="http://www.w3.org/1999/xlink" width="200" height="200"><defs><style type="text/css"></style></defs><path d="M877.713868 73.142753c0 211.419127-101.156427 364.580051-213.137981 438.856516C776.594012 586.275734 877.713868 739.436658 877.713868 950.855784h54.857064c10.276557 0 18.285688 8.009131 18.285688 18.285689v36.571376c0 10.276557-8.009131 18.285688-18.285688 18.285688H91.429277a18.06626 18.06626 0 0 1-18.285688-18.285688v-36.571376c0-10.276557 8.009131-18.285688 18.285688-18.285689H146.286341c0-211.419127 101.156427-364.580051 213.137981-438.856515C247.406197 437.722803 146.286341 284.561879 146.286341 73.142753H91.429277a18.06626 18.06626 0 0 1-18.285688-18.285689v-36.571376C73.143589 8.009131 81.15272 0 91.429277 0h841.141655c10.276557 0 18.285688 8.009131 18.285688 18.285688v36.571376c0 10.276557-8.009131 18.285688-18.285688 18.285689H877.713868z m-73.142753 0H219.429094c0 83.419309 18.87083 157.147204 48.566788 219.428258h488.008445C785.700285 230.289957 804.571115 156.562062 804.571115 73.142753z m-32.585096 694.85615c-42.276511-110.299271-118.271831-188.562016-194.303723-219.428258h-131.437526c-75.99532 30.866242-151.99064 109.128987-194.303723 219.428258h520.0084z" fill="#FFD300" p-id="6164"></path></svg>