<?xml version="1.0" standalone="no"?><!DOCTYPE svg PUBLIC "-//W3C//DTD SVG 1.1//EN" "http://www.w3.org/Graphics/SVG/1.1/DTD/svg11.dtd"><svg t="1546498793784" class="icon" style="" viewBox="0 0 1024 1024" version="1.1" xmlns="http://www.w3.org/2000/svg" p-id="6955" xmlns:xlink="http://www.w3.org/1999/xlink" width="200" height="200"><defs><style type="text/css"></style></defs><path d="M877.714286 73.142857q0 149.142857-60.857143 263.714286t-152.285714 175.142857q91.428571 60.571429 152.285714 175.142857t60.857143 263.714286l54.857143 0q8 0 13.142857 5.142857t5.142857 13.142857l0 36.571429q0 8-5.142857 13.142857t-13.142857 5.142857l-841.142857 0q-8 0-13.142857-5.142857t-5.142857-13.142857l0-36.571429q0-8 5.142857-13.142857t13.142857-5.142857l54.857143 0q0-149.142857 60.857143-263.714286t152.285714-175.142857q-91.428571-60.571429-152.285714-175.142857t-60.857143-263.714286l-54.857143 0q-8 0-13.142857-5.142857t-5.142857-13.142857l0-36.571429q0-8 5.142857-13.142857t13.142857-5.142857l841.142857 0q8 0 13.142857 5.142857t5.142857 13.142857l0 36.571429q0 8-5.142857 13.142857t-13.142857 5.142857l-54.857143 0zm-305.142857 404.571429q44-16.571429 85.142857-52.857143t74-87.142857 52.857143-120 20-144.571429l-585.142857 0q0 75.428571 20 144.571429t52.857143 120 74 87.142857 85.142857 52.857143q10.857143 4 17.428571 13.428571t6.571429 20.857143-6.571429 20.857143-17.428571 13.428571q-78.285714 29.142857-139.428571 112l400 0q-61.142857-82.857143-139.428571-112-10.857143-4-17.428571-13.428571t-6.571429-20.857143 6.571429-20.857143 17.428571-13.428571z" p-id="6956" fill="#FFD300"></path></svg>