<?xml version="1.0" standalone="no"?><!DOCTYPE svg PUBLIC "-//W3C//DTD SVG 1.1//EN" "http://www.w3.org/Graphics/SVG/1.1/DTD/svg11.dtd"><svg t="1546498692120" class="icon" style="" viewBox="0 0 1024 1024" version="1.1" xmlns="http://www.w3.org/2000/svg" p-id="5912" xmlns:xlink="http://www.w3.org/1999/xlink" width="200" height="200"><defs><style type="text/css"></style></defs><path d="M877.713868 73.142753c0 211.419127-101.156427 364.580051-213.137981 438.856516C776.594012 586.275734 877.713868 739.436658 877.713868 950.855784h54.857064c10.276557 0 18.285688 8.009131 18.285688 18.285689v36.571376c0 10.276557-8.009131 18.285688-18.285688 18.285688H91.429277a18.06626 18.06626 0 0 1-18.285688-18.285688v-36.571376c0-10.276557 8.009131-18.285688 18.285688-18.285689H146.286341c0-211.419127 101.156427-364.580051 213.137981-438.856515C247.406197 437.722803 146.286341 284.561879 146.286341 73.142753H91.429277a18.06626 18.06626 0 0 1-18.285688-18.285689v-36.571376C73.143589 8.009131 81.15272 0 91.429277 0h841.141655c10.276557 0 18.285688 8.009131 18.285688 18.285688v36.571376c0 10.276557-8.009131 18.285688-18.285688 18.285689H877.713868z m-73.142753 0H219.429094c0 25.161107 1.718855 49.7005 5.156564 73.142752H799.451122c3.437709-23.442252 5.156564-48.018217 5.156564-73.142752z m0 877.713031c0-205.12885-113.151838-356.570919-226.852247-402.285139h-131.437527C332.580932 594.284865 219.429094 745.726935 219.429094 950.855784h585.142021z" fill="#FFD300" p-id="5913"></path></svg>